<?xml version="1.0" encoding="utf-8"?>
<!-- Generator: Adobe Illustrator 25.0.0, SVG Export Plug-In . SVG Version: 6.00 Build 0)  -->
<svg version="1.1" id="Layer_1" xmlns="http://www.w3.org/2000/svg" xmlns:xlink="http://www.w3.org/1999/xlink" x="0px" y="0px"
	 viewBox="0 0 1000 1000" style="enable-background:new 0 0 1000 1000;" xml:space="preserve">
<style type="text/css">
	.st0{fill:#FF0000;stroke:#FFFFFF;stroke-width:8;stroke-miterlimit:10;}
</style>
<path class="st0" d="M453.6,952.1c-23.3-3.1-52.6-12.2-74.1-23c-17.8-9-40.2-25.2-55.7-39.9c-20.2-19.5-35-39.5-47.3-64.1l-10-19.9
	l67.2-0.7c72.1-0.7,71.8-0.7,79.8-8.2c17.3-16.3,10.1-45.6-12.7-51.3c-4-1-30.7-1.6-77.2-1.6h-71.2v-13.5v-13.5h31
	c16.9,0,33.7-0.7,37.2-1.6c9.4-2.1,16.3-7.5,20.6-15.9c6.1-12.4,4.1-24.6-5.4-34.3c-8.5-8.4-13.1-9.4-46.2-9.4h-28.6l4.3-12.4
	c2.4-7,7.3-18.1,10.7-24.9l6.3-12.5h81.6h81.5l6.3-3.3c3.4-1.8,8.2-6.1,10.5-9.4c3.8-5.5,4.3-7.1,4.3-17.2c0-10.1-0.4-11.7-4.3-17.2
	c-2.4-3.4-7-7.4-10.7-9.2c-6.4-3.3-6.8-3.3-63-3.4h-56.7l6.3-5.3c26.6-22.5,67.8-41.2,105.6-48.2c21.5-4.1,65.7-3.7,86,0.7
	c20.8,4.4,37.8,10.2,56.9,19.8l16.3,8l-13.5,0.9c-11.4,0.6-14.5,1.3-20.2,4.7c-19.8,11.5-19.2,40.8,1,51.9
	c3.7,2.1,11.2,2.6,52.5,3.1l48.3,0.7l6.8,10c8.8,12.7,22.6,40.8,27.3,55.4c3.8,12.2,8,27.9,8,30.4c0,1.1-16.6,1.6-57.9,1.6
	c-65.4,0-65.3,0-74.1,10.8c-12.8,15.5-8.2,36.8,10,46.2c5,2.6,9.1,2.7,65.3,2.7h60l-1,10.7c-0.6,5.8-2.7,17.5-4.8,25.9l-3.8,15.4
	l-73.9,0.7c-81,0.7-77.6,0.4-86.3,9.5c-8.2,8.5-10.5,21.8-5.5,32.4c3.1,6.7,10.5,14.1,16.2,16.2c2.6,1,24.5,1.6,61.6,1.6
	c36,0,57.4,0.6,57.4,1.4c0,2.8-23.3,30.1-33.6,39.4c-32.1,28.9-70.2,48.3-112.2,57.3C514,953,470.7,954.5,453.6,952.1z"/>
<path class="st0" d="M391,949.8c-79.6-17.2-141.9-45.9-205.4-95.1c-20.3-15.6-59.3-54.3-75.9-75.2C40.2,692.4,3.6,588.9,3.6,478.8
	c0-65.8,11.1-124,35.1-182.7c6.5-16.3,21.8-48.2,22.5-47.3c0.3,0.3-0.6,4.5-1.7,9.7c-3,13.1-3,47.3,0,60.8
	c7,30.3,19.3,52.6,41.5,74.9c16.8,16.8,29.9,25.7,49.2,33.6c49.6,20.3,107.6,11.9,149.4-21.3c48.1-38.2,68.2-100.7,51.5-159.1
	c-14.6-50.9-54.6-89.9-106.9-104.5c-9.4-2.6-14.8-3-38-3c-25.4,0-27.7,0.1-39.8,4c-15.1,4.5-32.6,12.7-43.1,19.8
	c-7.1,4.8-7.4,5-4.7,1.3c5.7-8.1,34-36.7,49-49.6c24.9-21.3,55.3-43.2,73.8-53l6.1-3.3l357.1,204.3
	c307.9,176.1,357.7,204,359.5,202.4c2.1-1.7,2.3,0.4,1.3,23c-1.7,44.4-6.8,78.8-17.3,117.3c-46.8,170.3-185.4,302.1-358.8,341.2
	c-8.5,2-15.9,3.6-16.6,3.6c-0.6,0,5-2.8,12.5-6.1c40.4-18.2,79.8-51.3,102.2-86l4.7-7.4h38.7c37.7,0,38.8-0.1,44.9-3.3
	c9.4-5,14.5-13.2,15.2-24.3c0.7-10.1-2-17.1-9.2-23.9c-7.5-7.3-12.4-8.2-38.1-8.2c-12.9,0-23.5-0.4-23.5-1.1c0-0.6,1.6-7.8,3.4-16.1
	c1.8-8.1,3.8-19.5,4.4-25.2l1-10.2h54.6c51,0,55-0.1,60-2.7c23.6-12.1,22.7-44.8-1.4-54.7c-4.5-2-13.8-2.3-60.6-2.3h-55.4l-3.1-13.8
	c-5.7-24.9-18.1-54.3-31.8-75.8l-5-7.8l40.1-0.7c43.2-0.7,43.1-0.7,51.9-9.1c5.7-5.4,9.5-16.9,8.1-25c-1.6-9.2-8.2-18.2-16.8-22
	l-7.4-3.6h-67.7h-67.7l-9.8-6.4c-48.8-32.1-115-45.6-174-35.4c-43.5,7.5-93.7,31.8-122,59.3l-6.1,6l-57.4,0.7l-57.3,0.7l-6.1,4.3
	c-17.5,12.2-17.2,38.4,0.4,50.2l5.8,3.8l33.8,0.4l33.7,0.4l-5,10.9c-2.8,6-7.3,17.1-9.8,24.5l-4.8,13.5l-57.2,0.7
	c-63.4,0.9-61.7,0.6-70.4,10.5c-12.8,14.4-8.8,36.8,8.1,46.3l6.4,3.6l52.3,0.4l52.2,0.4v13.2v13.2l-13.2,0.7
	c-14.1,0.7-19.1,2.6-25.7,9.1c-6.3,6.4-8.5,11.8-8.7,21.2c0,11.2,5.1,20.3,14.6,25.9c6.3,3.7,7.8,4,26.7,4.4l20.2,0.6l4.5,10.8
	c18.1,43.6,50.2,82.6,89.6,109c11.4,7.5,30.4,17.9,45.5,24.6C396.9,950.7,396,951,391,949.8z"/>
<path class="st0" d="M610.4,257.9C415.9,146.7,256.4,55.4,256,55c-1.3-1.4,22-12.9,24.3-12.1c1.3,0.4,79.8,45.6,174.4,100.2
	c94.8,54.7,173.3,99.9,174.7,100.4c1.6,0.6,2.6,0,3.3-2.1c0.6-1.7,0.7-3.3,0.4-3.6c-0.1-0.3-77.5-44.9-171.7-99.4S290,39,289.7,38.4
	c-0.4-1.4,39.9-17.5,44.5-17.8c2.8-0.3,617.2,351.9,620,355.3c1.6,2,6.8,30.3,5.8,31.4c-0.3,0.3-86.9-49.8-192.4-111.3
	C576.7,184.8,571.6,182,571.6,188.8c0,1,86.6,52.2,192.4,113.7s193.6,112.9,195.2,114c2.6,1.6,3.3,4.1,4.4,15.2
	c0.7,7.4,1.1,16.8,0.9,20.9l-0.4,7.4L610.4,257.9z"/>
<path class="st0" d="M182.5,434C94.6,419.3,39.9,330,66.2,244.1c5.3-17.1,32.4-57.4,46.3-68.7c19.2-15.6,40.9-26.2,64.5-31
	c11.1-2.3,17.2-2.7,34.8-2.1c25.3,0.9,37.1,3.6,58.3,13.6c46.6,22.3,77.3,65.5,83,117.1c0.9,7.5,1.6,15.8,1.4,18.3l-0.1,4.7l-1.1-5
	c-0.6-2.7-2.3-10.1-3.6-16.2c-7-31.8-33-63.7-63.5-77.5C243.3,178,193,186,159.2,217.7c-59.6,55.6-45.5,152.7,27.2,188.1
	c17.8,8.7,31.7,11.9,50.8,11.9c24.3,0,45.5-6.1,64.3-18.6c8.1-5.4,8.4-5.4,4.5-1.4c-5.8,6.1-22.3,17.2-34.3,23.2
	C244.8,434.3,212.3,439,182.5,434z"/>
<path class="st0" d="M689.3,207.6c-168.2-96.7-305.4-176.3-305-176.7c3.1-3,51.9-14.1,74.9-17.1l12.9-1.7l65.3,37.7
	c36,20.8,67.5,38.8,70.2,40.2c9.1,4.5,19.3-0.7,20.9-10.8c1.4-9.4-1.3-11.4-54-41.7c-27-15.6-49-28.6-48.8-28.9
	c1.3-1.1,52.7,2.7,71.2,5.3c26.7,4,72.9,14.6,75.9,17.8c0.4,0.3-0.7,4.3-2.4,8.8c-15.2,40.9,5,84.7,46.3,100.9
	c8.4,3.3,11.8,3.8,26,3.8c16.5,0,18.9-0.4,36.4-7.7c4.4-1.8,4.7-1.7,81.3,49.2l76.8,51l7.1,12.1c8.2,14.1,20.6,38.4,19.9,39.2
	c-0.3,0.3-24-15.5-52.6-35c-46.2-31.6-52.6-35.5-57.6-35.5c-11.5,0-18.5,14.8-10.8,23c1.7,1.8,34.1,24.5,72.1,50.2
	c68,46.2,69,47.1,71.1,53.3c3.8,10.9,10.7,38.4,9.7,38.2C995.7,383.4,857.6,304.2,689.3,207.6z M713.8,186.7c4.1-4,4.5-7.8,1.1-11.8
	C711.4,170.7,480,37.7,475.2,37c-5.4-0.9-9.5,3.1-9.5,9.1c0,4,1,5.4,5.4,8.2c5.3,3.4,209.4,121.3,226.5,130.8c5,2.8,10,5.1,10.9,5.1
	S711.9,188.7,713.8,186.7z"/>
<path class="st0" d="M858.2,175.1L791,130.4l6.5-6.4l6.5-6.5l16.6,10.8c9.2,5.8,30,19.6,46.2,30.4c26.9,17.9,30.3,20.8,38.5,31
	c11.8,14.8,22.9,30.4,21.3,30.3C926.2,219.9,895.3,199.7,858.2,175.1z"/>
<path class="st0" d="M836.3,128.4c-14.6-9.8-26.6-18.3-26.6-18.9c0-0.7,0.9-2.4,2-3.8c1.4-2,2.4-2.3,3.8-1.3
	c14.2,10.7,49.8,41.5,48.2,41.8C863.3,146.1,851.1,138.2,836.3,128.4z"/>
</svg>
