<svg xmlns="http://www.w3.org/2000/svg" viewBox="0 0 986.253 988.157"><path d="M982.871,493.709a489.546,489.546,0,0,1-11.108,104L345.073,957.944C251.934,928.035,168.6,869.07,109.091,791.891c88.23,93.052,260.475,23.157,255.9-107.287-13.632-239.5-369.851-166.818-289,58.7C-118.634,435.624,122.593-.953,490.143,6,387.933,7.553,297.533,75.956,266.259,170.15c-12.527,1.391-44.833-4.588-53.821,7.074-15.128,14.091-3.955,41.953,17.072,41.218h25.883a243.553,243.553,0,0,0-1.448,41.049H149.826a24.146,24.146,0,1,0,0,48.292H261.261a239.106,239.106,0,0,0,26.126,62.78H218.5a24.147,24.147,0,0,0,0,48.293H325.1C402.878,500.623,546.677,512.19,636.711,443c12.357-2.688,144.811,7.052,150.407-7.071,15.113-14.094,3.98-41.958-17.073-41.221H686.452a240.112,240.112,0,0,0,47.423-111.073H845.237a24.146,24.146,0,1,0,0-48.292H736.289a241.492,241.492,0,0,0-12.314-65.195h51.238a24.147,24.147,0,1,0,0-48.293H701.4C660.181,53.524,583.619,7.236,499.922,5.98,767.076,8.563,982.871,225.952,982.871,493.709Z" transform="translate(-6.874 -5.922)" style="fill:#002e3e"/><path d="M336.961,707.939C320.888,839.914,143.8,865.283,89.286,744.194c-52.034-117.1,91.57-231.752,194.078-155.848-67-36.623-155.325,16.352-153.317,93.41C128.99,803.724,308.5,824.869,336.961,707.939Z" transform="translate(-6.874 -5.922)" style="fill:#002e3e"/><path d="M614.809,283.045h98.484A220.039,220.039,0,0,1,661.18,393.109c-13.513,2.087-73.559-5.957-82.764,7.009-17.245,17.878-.463,44.79,23.185,40.846C526.55,485,417.63,473.873,353.429,417.037c13.285-2.454,103.645,6.609,111.716-7.008,14.229-13.18,5.012-39.523-14.477-40.727-2.794-.432-137.341.06-140.117-.12a219.1,219.1,0,0,1-28.473-62.21c21.363-2.061,66.064,10.039,67-23.927a23.955,23.955,0,0,0-23.783-23.928H274.206a221.905,221.905,0,0,1,1.507-40.676c12.3-2.636,139.553,6.941,145.31-7.007,14.229-13.18,5.013-39.523-14.477-40.727-2.651-.4-116.386.034-119.06-.12C339.265,6.325,587.732-24.147,677.905,122.733c-13.324,2.5-107.935-6.692-115.9,7.007-14.23,13.18-5.013,39.523,14.477,40.727,2.823.4,123.274-.034,126.119.12a220.184,220.184,0,0,1,13.279,64.6c-13.322,2.522-110.1-6.725-117.984,7.008C582.826,256.158,594.139,283.88,614.809,283.045Z" transform="translate(-6.874 -5.922)" style="fill:#002e3e"/><path d="M357.931,970.164a494.622,494.622,0,0,0,103.492,21.494l132.439-75.15c5.447-3.28,12.95.94,12.835,7.254,7.4,5.957-113.4,67.033-114.784,69.954a498.725,498.725,0,0,0,172.21-23.809C625.492,905.144,703.384,830.163,768.061,867.9c.964-.635,163.14-106.329,163.976-106.876a480.124,480.124,0,0,0,32.49-61.811c-.126.122-113.973,75.744-114.21,75.932a11.339,11.339,0,0,1-15.131-2.236,9.515,9.515,0,0,1,2.5-13.954c.2-.129,139.724-92.907,139.91-93.022a471.81,471.81,0,0,0,15.526-54.567ZM698.611,827.83,459.226,963.623a9.357,9.357,0,0,1-12.657-3.325,9.024,9.024,0,0,1,3.385-12.43L689.338,812.035C699.4,806.066,709.268,821.929,698.611,827.83Z" transform="translate(-6.874 -5.922)" style="fill:#002e3e"/><path d="M920.38,778.724A489.352,489.352,0,0,1,722.816,948.762a488.765,488.765,0,0,0,76.4-50.587,75.339,75.339,0,0,0-21.491-24.822Z" transform="translate(-6.874 -5.922)" style="fill:#002e3e"/></svg>